<svg width="532" height="583" viewBox="0 0 532 583" fill="none" xmlns="http://www.w3.org/2000/svg">
<g clip-path="url(#clip0_9229_6336)">
<path name="Afghanistan" d="M495.599 118.5L497.099 120.3L494.199 121.1L491.799 122.2L485.899 123L480.599 124.3L478.199 127.1L480.099 129.8L481.499 133L479.499 135.7L480.299 138.2L479.399 140.5L474.199 140.3L477.299 144.5L474.199 146.2L472.799 150L473.899 153.9L472.099 155.7L469.999 155.1L465.999 156L465.799 157.7H461.699L459.399 161.4L460.199 166.8L453.599 169.5L449.699 168.9L448.799 170.3L445.399 169.5L440.099 170.5L430.499 167.2L434.399 161.4L433.299 157.3L428.999 156.2L427.799 152.1L425.099 147L426.699 143.5L424.199 142.5L424.699 137.8L425.299 129.8L431.199 132.3L435.099 131.4L435.499 128.5L439.499 127.6L442.099 125.6L441.899 120.5L446.099 119.2L446.399 117L449.299 118.7L450.899 118.9H453.899L458.199 120.3L459.999 121L463.399 119L465.499 120.2L466.399 117.3L469.599 117.4L470.199 116.5L469.999 113.9L471.699 111.7L474.999 113.1L474.899 115.1L476.599 115.4L477.499 120.8L480.199 122.9L481.699 121.5L483.899 120.9L486.399 118L490.199 118.5H495.599Z" fill="#ECECEC" stroke="black" stroke-width="0.2" stroke-linecap="round" stroke-linejoin="round"/>
<path name="Albania" d="M233.8 428.9L234.4 430.9L233.7 434L234.6 437L233.7 439.4L234.1 441.6L222.4 441.5L221.6 462L225.2 467.2L228.8 471.2L218.4 473.8L204.9 472.9L201.1 469.9L178.4 470.1L177.6 470.6L174.3 467.7L170.7 467.5L167.3 468.6L164.6 469.8L164.1 465.8L165 460.1L167 454.2L167.3 451.5L169.2 445.7L170.6 443.1L173.9 438.9L175.8 436L176.4 431.3L176.1 427.6L174.5 425.3L173 421.4L171.7 417.6L172 416.2L173.7 413.7L172.1 407.5L170.9 403.2L168.1 399.1L168.7 397.9L171 397L172.7 397.1L174.7 396.4L191.4 396.5L192.7 401.2L194.3 405.1L195.6 407.2L197.7 410.5L201.5 410L203.3 409.1L206.4 410L207.3 408.4L208.8 404.7L212.3 404.4L212.6 403.3H215.5L215 405.6L221.8 405.5L221.9 409.6L223 412L222.1 415.9L222.5 419.9L224.3 422.3L223.9 429.9L225.3 429.3L227.7 429.5L231.2 428.5L233.8 428.9Z" fill="#ECECEC" stroke="black" stroke-width="0.2" stroke-linecap="round" stroke-linejoin="round"/>
<path name="Austria" d="M167.899 395.9L166.399 391.1L168.699 388.3L170.399 387.2L172.499 389.4L170.499 390.8L169.499 392.4L169.299 395.2L167.899 395.9Z" fill="#ECECEC" stroke="black" stroke-width="0.2" stroke-linecap="round" stroke-linejoin="round"/>
<path name="Armenia" d="M200.599 84.9004L200.999 86.1004L202.399 85.5004L203.599 87.2004L204.899 87.9004L205.499 90.2004L204.999 92.4004L205.999 95.1004L208.299 96.6004L208.399 98.3004L206.699 99.2004L206.599 101.3L204.399 104.4L203.499 104L203.299 102.6L200.199 100.4L199.499 97.4004L199.599 93.0004L200.099 91.1004L199.199 90.1004L198.699 88.0004L200.599 84.9004Z" fill="#ECECEC" stroke="black" stroke-width="0.2" stroke-linecap="round" stroke-linejoin="round"/>
<path name="United Arab Emirates" d="M408.8 193.6L410.1 198.7H407.3V202.9L408.4 203.8L406 205.1L406.2 207.7L404.9 210.3V212.9L403.9 214.3L387 211.1L384.3 204.5L384 203.1L384.9 202.7L385.3 204.5L389.5 203.5L394.1 203.7L397.5 203.9L400.8 199.5L404.5 195.4L407.5 191.4L408.8 193.6Z" fill="#ECECEC" stroke="black" stroke-width="0.2" stroke-linecap="round" stroke-linejoin="round"/>
<path name="Burundi" d="M343.399 109.901L341.599 110.101L338.799 106.401L338.599 105.401H336.299L334.399 103.701L333.399 103.801L330.999 102.001L326.799 100.401L326.699 97.3006L325.399 95.1006L332.399 94.1006L333.799 95.7006L335.999 96.8006L335.299 98.4006L338.499 100.601L337.399 102.701L339.999 104.401L342.499 105.401L343.399 109.901Z" fill="#ECECEC" stroke="black" stroke-width="0.2" stroke-linecap="round" stroke-linejoin="round"/>
<path name="Belgium" d="M183.2 47.7004L182.9 48.5004L183.6 50.6004L183.4 53.2004H180.6L181.7 54.6004L180.4 58.6004L179.5 59.7004L175.1 59.8004L172.7 61.3004L168.5 60.8004L161.2 59.1004L159.9 57.0004L155 58.1004L154.5 59.3004L151.4 58.4004L148.8 58.2004L146.5 57.0004L147.2 55.5004L147 54.4004L148.4 54.1004L151.1 55.8004L151.7 54.1004L156.1 54.4004L159.6 53.3004L162 53.5004L163.7 54.8004L164.1 53.7004L163.1 49.6004L164.8 48.8004L166.4 45.9004L170.2 48.0004L172.8 45.4004L174.5 44.9004L178.5 46.8004L180.8 46.5004L183.2 47.7004Z" fill="#ECECEC" stroke="black" stroke-width="0.2" stroke-linecap="round" stroke-linejoin="round"/>
<path name="Benin" d="M341.599 110.1L337.799 109.2L334.599 106.3L333.399 103.8L334.399 103.7L336.299 105.4H338.599L338.799 106.4L341.599 110.1Z" fill="#ECECEC" stroke="black" stroke-width="0.2" stroke-linecap="round" stroke-linejoin="round"/>
<path name="Burkina Faso" d="M347.899 93.1002L350.399 90.5002L353.899 93.8002L357.499 98.4002L359.999 98.7002L361.899 100.4L357.699 100.9L357.799 105.9L357.399 108.1L355.699 109.6L356.499 112.7L355.199 113.1L351.299 109.7L352.499 106.6L350.599 104.7L348.699 105.2L343.399 109.9L342.499 105.4L339.999 104.4L337.399 102.7L338.499 100.6L335.299 98.4002L335.999 96.8002L333.799 95.7002L332.399 94.1002L333.499 93.0002L337.699 94.9002L340.599 95.2002L341.199 94.5002L337.899 91.0002L339.099 90.2002L340.599 90.4002L344.899 94.2002L347.299 94.7002L347.899 93.1002Z" fill="#ECECEC" stroke="black" stroke-width="0.2" stroke-linecap="round" stroke-linejoin="round"/>
<path name="Bangladesh" d="M267.499 387.301L266.899 387.401V387.101L264.899 381.001L264.889 380.941L264.799 379.901L263.399 377.001L266.899 377.501L268.599 373.801L271.699 374.201L271.999 376.701L273.199 378.201V380.301L271.799 381.601L269.499 385.001L267.499 387.301Z" fill="#ECECEC" stroke="black" stroke-width="0.2" stroke-linecap="round" stroke-linejoin="round"/>
<path name="Bulgaria" d="M129.099 34.0008L128.699 38.2008L127.399 38.4008L126.999 41.9008L122.599 39.0008L120.099 39.5008L116.599 36.6008L114.199 34.1008L111.999 34.0008L111.199 31.8008L115.099 30.6008L118.699 31.1008L123.199 29.8008L126.299 32.5008L129.099 34.0008Z" fill="#ECECEC" stroke="black" stroke-width="0.2" stroke-linecap="round" stroke-linejoin="round"/>
<path name="Bosnia and Herzegovina" d="M119.3 283.9L119.1 286L120.4 289.8L119.3 292.4L119.9 294.1L117.1 298.1L115.4 300.1L114.3 304.1L114.5 308.2L114.2 318.5L109.5 319.3L108.1 314.9L108.4 300.1L107.2 298.8L107 295.6L105 293.4L103.3 291.5L104 288.1L106 287.4L107.1 284.6L109.9 284L111.1 282.1L113 280.2H115L119.3 283.9Z" fill="#ECECEC" stroke="black" stroke-width="0.2" stroke-linecap="round" stroke-linejoin="round"/>
<path name="Belarus" d="M101.1 262.9L100.6 266L101.4 268.9L104.5 273.1L104.7 276.2L111.2 277.7L111.1 282.1L109.9 284L107.1 284.6L106 287.4L104 288.1L99.0996 288L96.4996 287.5L94.6996 288.5L92.1996 288L82.3996 288.3L82.1996 292L82.9996 296.8L79.0996 295.2L76.4996 295.4L74.4996 297L71.9996 295.7L70.9996 293.5L68.4996 292.1L68.0996 288.4L69.6996 285.7L69.4996 283.5L73.9996 278.2L74.8996 273.8L76.3996 272.2L79.0996 273.1L81.4996 271.8L82.2996 270.1L86.5996 267.3L87.6996 265.3L92.9996 262.6L96.0996 261.7L97.4996 262.9H101.1Z" fill="#ECECEC" stroke="black" stroke-width="0.2" stroke-linecap="round" stroke-linejoin="round"/>
<path name="Belize" d="M245.2 78.5006L242.9 81.1006L241.6 85.6006L243.7 89.2006L239.1 88.4006L234.1 90.4006L234.4 93.6006L229.8 94.2006L225.9 91.9006L221.9 93.7006L218.1 93.5006L217.3 89.3006L214.5 87.2006L215.2 86.4006L214.6 85.6006L215.2 83.6006L217 81.6006L214.2 78.9006L213.5 76.5006L214.6 75.1006L216.4 77.7006L218.3 77.3006L222.3 78.2006L229.9 78.6006L232.2 77.0006L238.1 75.5006L242.1 77.8006L245.2 78.5006Z" fill="#ECECEC" stroke="black" stroke-width="0.2" stroke-linecap="round" stroke-linejoin="round"/>
<path name="Bolivia" d="M195.6 71.2008L197.5 71.1008L196.4 73.9008L199.1 76.4008L198.6 79.3008L197.5 79.6008L196.6 80.2008L195 81.7008L194.6 85.2008L189.8 82.8008L187.7 80.1008L185.6 78.7008L183.1 76.3008L181.8 74.4008L179.1 71.4008L179.9 68.8008L181.9 70.3008L182.9 68.9008L185.2 68.8008L189.7 69.9008L193.2 69.8008L195.6 71.2008Z" fill="#ECECEC" stroke="black" stroke-width="0.2" stroke-linecap="round" stroke-linejoin="round"/>
<path name="Brazil" d="M254.2 19.6002L250.3 19.4002L249.5 20.0002L251 22.0002L253 26.0002L248.9 26.3002L247.6 27.7002L247.9 30.8002L245.8 30.2002L241.5 30.5002L240 29.0002L238.3 30.1002L236.4 29.2002L232.5 29.1002L226.8 27.6002L221.9 27.1002L218.1 27.3002L215.7 28.9002L213.4 29.2002L212.9 26.4002L211 23.6002L213.8 22.3002L213.4 19.9002L211.7 17.6002L211.1 14.9002H215.8L220.6 12.6002L221.1 9.2002L224.7 7.2002L223.7 4.5002L226.4 3.5002L231 1.2002L236.3 2.7002L237.2 4.2002L239.6 3.5002L244.4 4.90019L245.5 7.80019L244.8 9.40019L248.6 13.4002L250.7 14.5002V15.6002L254.1 16.7002L255.8 18.3002L254.2 19.6002Z" fill="#ECECEC" stroke="black" stroke-width="0.2" stroke-linecap="round" stroke-linejoin="round"/>
<path name="Brunei Darussalam" d="M240.2 472.601L242.1 477.701L243.2 478.901L244.8 482.601L250.9 489.601L253.2 490.301L253.1 492.601L254.6 496.701L258.9 497.701L262.3 500.601L254.2 505.301L249 510.101L247 514.401L245.2 516.801L242.2 517.301L241 520.401L240.4 522.401L236.8 523.801L232.3 523.501L229.8 521.701L227.5 521.001L224.7 522.401L223.2 525.501L220.5 527.401L217.7 530.301L213.7 531.001L212.6 528.701L213.2 524.801L210.2 518.701L208.8 517.701L209.4 499.001L214.9 498.801L215.7 475.901L219.9 475.701L228.6 473.401L230.6 476.101L234.3 473.601H236L239.2 472.101L240.2 472.601Z" fill="#ECECEC" stroke="black" stroke-width="0.2" stroke-linecap="round" stroke-linejoin="round"/>
<path name="Bhutan" d="M233.9 303.4L237.8 305.9L240.9 308.5L241 310.6L244.9 313.9L247.3 316.7L248.7 320.5L253 323.1L253.9 325.1L252.1 325.8L248.4 325.7L244.2 325L242.1 325.5L241.2 327.1L239.4 327.3L237.2 325.9L230.9 329.1L228.3 328.5L227.5 329L225.9 332.9L221.6 331.6L217.5 331L213.9 328.6L209.2 326.4L206.2 328.5L204 331.7L203.5 336.2L199.9 335.9L196 334.8L192.7 338.2L189.7 344.2L189.1 342.3L188.8 339.4L186.2 337.3L184.1 334L183.6 331.7L180.9 328.3L181.4 326.4L180.8 323.7L181.2 318.7L182.6 317.6L185.4 311.1L190 310.6L191 308.9L192 309.1L193.4 310.5L200.5 308.1L202.9 305.6L205.8 303.3L205.2 301.1L206.8 300.5L212.3 300.9L217.5 297.9L221.5 290.9L224.3 288.3L227.9 287.2L228.6 289.9L231.9 293.9V296.6L231.1 299.2L231.5 301.2L233.4 303.1L233.9 303.4Z" fill="#ECECEC" stroke="black" stroke-width="0.2" stroke-linecap="round" stroke-linejoin="round"/>
<path name="Botswana" d="M147 54.4L147.2 55.5L146.5 57L148.8 58.2L151.4 58.4L151.1 60.9L149 62L145.2 61.2L144.2 63.7L141.8 63.9L140.9 62.9L138.2 65.1L135.7 65.4L133.5 64L131.7 61.3L129.3 62.3V59.4L132.9 55.9L132.7 54.3L135 54.9L136.3 53.8H140.5L141.5 52.5L147 54.4Z" fill="#ECECEC" stroke="black" stroke-width="0.2" stroke-linecap="round" stroke-linejoin="round"/>
<path name="Côte d'Ivoire" d="M68.4998 292.1L70.9998 293.5L71.9998 295.7L74.4998 297L76.4998 295.4L79.0998 295.2L82.9998 296.8L84.4998 306L82.0998 311.3L80.5998 318.6L82.9998 324.1L82.7998 326.7H80.1998L76.2998 325.5H72.5998L65.8998 326.7L61.9998 328.5L56.3998 330.9L55.2998 330.7L55.6998 325.4L56.2998 324.6L56.0998 322.1L53.6998 319.4L51.8998 319L50.2998 317.2L51.4998 314.3L50.9998 311.2L51.1998 309.4H52.0998L52.4998 306.6L52.0998 305.3L52.5998 304.4L54.6998 303.7L53.2998 298.5L51.9998 295.9L52.4998 293.7L53.5998 293.2L54.3998 292.6L55.8998 293.6H60.2998L61.2998 291.8L62.2998 291.9L63.8998 291.2L64.7998 293.9L66.0998 293.1L68.4998 292.1Z" fill="#ECECEC" stroke="black" stroke-width="0.2" stroke-linecap="round" stroke-linejoin="round"/>
<path name="Cameroon" d="M185.4 311.1L182.6 317.6L181.2 318.7L180.8 323.7L181.4 326.4L180.9 328.3L183.6 331.7L184.1 334L186.2 337.3L188.8 339.4L189.1 342.3L189.7 344.2L189.3 347.6L184.8 346.1L180.2 344.4L173.1 344.2L172.4 343.8L169 344.6L165.6 343.8L162.9 344.2L153.6 344.1L154.5 339L152.2 334.7L149.6 333.7L148.5 330.8L147 329.9L147.1 328.1L148.5 323.5L151.2 317.3H152.8L156.2 313.5L158.3 313.4L161.5 316.1L165.4 313.9L165.9 311.2L167.2 308.6L168 305.4L171 302.8L172.1 298.3L173.3 296.8L174.1 293.5L175.5 289.4L180.2 284.4L180.5 282.3L181.1 281.1L178.8 278.6L179 276.5L180.5 276.2L182.8 280.3L183.3 284.5L183.1 288.8L186.3 294.6H183.1L181.5 295L178.9 294.4L177.7 297.4L181.1 301.2L183.6 302.3L184.4 304.9L186.2 309.3L185.4 311.1Z" fill="#ECECEC" stroke="black" stroke-width="0.2" stroke-linecap="round" stroke-linejoin="round"/>
<path name="xx" d="M253.899 325.1L257.399 330.4L259.999 331.2L261.499 330.1L264.099 330.5L267.199 329.2L268.599 331.9L273.699 336.2L273.399 343.7L275.699 344.6L273.799 346.8L271.699 348.6L269.499 351.9L268.299 354.9L267.999 360L266.699 362.5L266.599 367.3L264.999 369.1L264.799 372.9L263.999 373.4L263.399 377L264.799 379.9L264.899 380.9L263.699 391.2L265.199 394.8L264.199 397.5L265.999 402.1L269.399 405.6L270.099 409.1L271.699 410.8L271.399 411.9L270.499 411.6L262.799 412.7L261.299 413.5L259.599 417.6L260.799 420.4L259.699 428L258.799 434.4L260.299 435.6L264.199 438.1L265.799 436.9L265.999 443.8H261.699L259.499 440.3L257.499 437.5L253.199 436.6L251.999 433.3L248.499 435.3L244.099 434.4L242.199 431.5L238.699 430.9L235.999 431L235.699 429L233.799 428.9L231.199 428.5L227.699 429.5L225.299 429.3L223.899 429.9L224.299 422.3L222.499 419.9L222.099 415.9L222.999 412L221.899 409.6L221.799 405.5L214.999 405.6L215.499 403.3H212.599L212.299 404.4L208.799 404.7L207.299 408.4L206.399 410L203.299 409.1L201.499 410L197.699 410.5L195.599 407.2L194.299 405.1L192.699 401.2L191.399 396.5L174.699 396.4L172.699 397.1L170.999 397L168.699 397.9L167.899 395.9L169.299 395.2L169.499 392.4L170.499 390.8L172.499 389.4L173.999 390.1L175.999 387.6L179.099 387.7L179.399 389.5L181.499 390.6L184.899 386.6L188.199 383.5L189.599 381.4L189.499 376.1L191.999 369.9L194.599 366.6L198.299 363.5L198.999 361.5L199.099 359.1L199.999 356.9L199.699 353.2L200.399 347.5L201.499 343.5L203.199 340.1L203.499 336.2L203.999 331.7L206.199 328.5L209.199 326.4L213.899 328.6L217.499 331L221.599 331.6L225.899 332.9L227.499 329L228.299 328.5L230.899 329.1L237.199 325.9L239.399 327.3L241.199 327.1L242.099 325.5L244.199 325L248.399 325.7L252.099 325.8L253.899 325.1Z" fill="#ECECEC" stroke="black" stroke-width="0.2" stroke-linecap="round" stroke-linejoin="round"/>
<path name="Cameroon" d="M203.5 336.201L203.2 340.101L201.5 343.501L200.4 347.501L199.7 353.201L200 356.901L199.1 359.101L199 361.501L198.3 363.501L194.6 366.601L192 369.901L189.5 376.101L189.6 381.401L188.2 383.501L184.9 386.601L181.5 390.601L179.4 389.501L179.1 387.701L176 387.601L174 390.101L172.5 389.401L170.4 387.201L168.7 388.301L166.4 391.101L161.8 384.301L166.1 380.701L164 376.501L166 374.901L169.8 374.101L170.2 371.201L173.3 374.301L178.3 374.601L180 371.601L180.7 367.301L180.1 362.301L177.4 358.501L179.9 351.001L178.5 349.801L174.3 350.301L172.7 347.001L173.1 344.201L180.2 344.401L184.8 346.101L189.3 347.601L189.7 344.201L192.7 338.201L196 334.801L199.9 335.901L203.5 336.201Z" fill="#ECECEC" stroke="black" stroke-width="0.2" stroke-linecap="round" stroke-linejoin="round"/>
<path name="Democratic Republic of the Congo" d="M172.3 32.1L174.8 34.1L178.5 34.6L178.3 36.3L181.1 37.6L181.7 36L185.1 36.7L185.8 38.7L189.5 39L192.1 42.1H190.6L189.9 43.2L188.8 43.5L188.6 44.9L187.7 45.2L187.6 45.8L186 46.4L183.8 46.3L183.2 47.7L180.8 46.5L178.5 46.8L174.5 44.9L172.8 45.4L170.2 48L166.4 45.9L163.4 43.3L160.8 41.8L160.1 39.1L159.1 37.3L162.5 36L164.2 34.4L167.7 33.2L168.8 32L170.1 32.7L172.3 32.1Z" fill="#ECECEC" stroke="black" stroke-width="0.2" stroke-linecap="round" stroke-linejoin="round"/>
<path name="Republic of Congo" d="M166.5 15.8004L167.9 18.9004L166.7 20.6004L168.6 22.7004L170.1 26.0004L169.9 28.2004L172.3 32.1004L170.1 32.7004L168.8 32.0004L167.7 33.2004L164.2 34.4004L162.5 36.0004L159.1 37.3004L160.1 39.1004L160.8 41.8004L163.4 43.3004L166.4 45.9004L164.8 48.8004L163.1 49.6004L164.1 53.7004L163.7 54.8004L162 53.5004L159.6 53.3004L156.1 54.4004L151.7 54.1004L151.1 55.8004L148.4 54.1004L147 54.4004L141.5 52.5004L140.5 53.8004H136.3L136.7 49.3004L139.1 45.1004L131.9 43.9004L129.5 42.3004L129.7 39.6004L128.7 38.2004L129.1 34.0004L128 27.5004H130.9L132.1 25.2004L133 19.6004L132.1 17.5004L132.9 16.2004L136.9 15.9004L137.9 17.2004L141 14.2004L139.7 11.9004L139.3 8.5004L143 9.30038L145.9 8.40039L146.2 10.7004L151.1 12.1004L151.2 14.3004L155.9 13.1004L158.5 11.5004L164.1 13.9004L166.5 15.8004Z" fill="#ECECEC" stroke="black" stroke-width="0.2" stroke-linecap="round" stroke-linejoin="round"/>
<path name="Djibouti" d="M342.099 285.1L340.199 288.6L338.899 287.4L337.599 287.9L334.399 287.8L334.199 285.8L333.699 284L335.499 281L337.399 278.2L339.799 278.8L341.499 277.2L342.899 279.2L342.799 281.8L339.699 283.4L342.099 285.1Z" fill="#ECECEC" stroke="black" stroke-width="0.2" stroke-linecap="round" stroke-linejoin="round"/>
<path name="Costa Rica" d="M143.6 121.5L142.6 124.8L143.6 130.9L142.5 136.2L139.3 139.8L139.9 144.6L144.4 148.5L144.5 150L147.9 152.6L150.5 164.1L152.4 169.8L152.8 172.8L152 178L152.4 181L151.8 184.5L152.4 188.5L150.2 191.2L153.6 195.9L153.8 198.6L155.9 202.2L158.4 201L162.9 204L165.4 208L146.6 220.3L130.6 232.9L122.8 235.7L116.6 236.4L116.5 232.3L113.9 231.2L110.4 229.4L109.1 226.4L90.3998 212.4L71.7998 198.4L51.2998 182.8L51.3998 181.6L51.4998 181.2L51.5998 173.6L60.4998 168.8L65.8998 167.8L70.3998 166.1L72.4998 162.9L78.8998 160.4L79.1998 155.6L82.2998 155L84.7998 152.7L91.8998 151.6L92.8998 149.1L91.4998 147.7L89.5998 140.9L89.2998 137L87.3998 132.9L92.4998 129.4L98.2998 128.3L101.6 125.7L106.7 123.7L115.7 122.6L124.5 122.1L127.2 123L132.1 120.5L137.8 120.4L140 121.9L143.6 121.5Z" fill="#ECECEC" stroke="black" stroke-width="0.2" stroke-linecap="round" stroke-linejoin="round"/>
<path name="Egypt" d="M284.699 158.3L288.599 167.7L289.299 169.3L287.999 171.9L287.299 176.7L286.099 180.1L284.899 181.2L282.899 179.1L280.199 176.3L275.499 167.1L274.999 167.7L277.799 174.4L281.699 180.9L286.599 190.9L288.899 194.4L290.899 198L296.299 205.1L295.299 206.2L295.699 210.4L302.499 216.2L303.599 217.5H281.499H259.999H237.699L236.699 193.8L235.399 171L233.399 165.8L234.499 161.9L233.499 159.1L235.199 156L242.399 155.9L247.799 157.6L253.299 159.5L255.899 160.5L259.899 158.5L261.999 156.7L266.699 156.1L270.599 156.9L272.399 160.1L273.499 158L277.899 159.5L282.199 159.9L284.699 158.3Z" fill="#ECECEC" stroke="black" stroke-width="0.2" stroke-linecap="round" stroke-linejoin="round"/>
<path name="Czech Republic" d="M341.499 277.2L339.799 278.8L337.399 278.2L335.399 276.1L332.899 272.4L330.299 270.3L328.799 268.1L323.799 265.5L319.899 265.4L318.499 264.1L315.299 265.6L311.699 262.7L310.199 267.5L303.599 266.1L302.899 263.6L304.899 254.1L305.199 249.9L306.899 247.9L310.899 246.8L313.599 243.2L317.199 250.6L319.099 256.5L322.299 259.6L330.299 265.7L333.599 269.3L336.799 273.1L338.599 275.3L341.499 277.2Z" fill="#ECECEC" stroke="black" stroke-width="0.2" stroke-linecap="round" stroke-linejoin="round"/>
<path name="Ethiopia" d="M319.899 265.4L323.799 265.5L328.799 268.1L330.299 270.3L332.899 272.4L335.399 276.1L337.399 278.2L335.499 281L333.699 284L334.199 285.8L334.399 287.8L337.599 287.9L338.899 287.4L340.199 288.6L338.999 290.8L341.199 294.4L343.399 297.5L345.599 299.8L364.299 307.4L369.099 307.3L353.499 326.6L346.199 326.9L341.199 331.4L337.599 331.5L336.099 333.6H332.199L329.899 331.4L324.699 334.1L323.099 336.8L319.299 336.2L317.999 335.5L316.699 335.7L314.899 335.6L307.699 330.2H303.699L301.799 328.1L301.699 324.5L298.799 323.4L295.299 316.4L292.699 314.9L291.699 312.3L288.699 309.2L285.199 308.7L287.099 305.1L290.099 304.9L290.899 303L290.699 298V297.2L292.199 290.5L294.799 288.7L295.299 286.1L297.599 281.1L300.899 278L302.899 271.6L303.599 266.1L310.199 267.5L311.699 262.7L315.299 265.6L318.499 264.1L319.899 265.4Z" fill="#ECECEC" stroke="black" stroke-width="0.2" stroke-linecap="round" stroke-linejoin="round"/>
<path name="xxx" d="M173.1 344.201L172.7 347.001L174.3 350.301L178.5 349.801L179.9 351.001L177.4 358.501L180.1 362.301L180.7 367.301L180 371.601L178.3 374.601L173.3 374.301L170.2 371.201L169.8 374.101L166 374.901L164 376.501L166.1 380.701L161.8 384.301L156 377.801L152.3 372.501L148.8 365.901L149 363.701L150.3 361.701L151.6 357.001L152.8 352.201L154.7 351.901H162.9V344.201L165.6 343.801L169 344.601L172.4 343.801L173.1 344.201Z" fill="#ECECEC" stroke="black" stroke-width="0.2" stroke-linecap="round" stroke-linejoin="round"/>
<path name="Dominican Republic" d="M328.299 84.8004L333.399 86.1004L335.499 88.7004L339.099 90.2004L337.899 91.0004L341.199 94.5004L340.599 95.2004L337.699 94.9004L333.499 93.0004L332.399 94.1004L325.399 95.1004L319.799 91.9004L314.299 92.2004L314.599 89.5004L312.499 85.2004L309.099 82.8004L306.099 82.1004L303.899 80.2004L304.299 79.4004L308.899 80.5004L316.599 81.5004L324.199 84.6004L325.399 85.8004L328.299 84.8004Z" fill="#ECECEC" stroke="black" stroke-width="0.2" stroke-linecap="round" stroke-linejoin="round"/>
<path name="Algeria" d="M99.0996 288L98.6996 290L101 293.3V298L101.6 303L103 305.4L101.7 311.1L102.2 314.3L103.7 318.4L105 320.7L96.0996 324.4L92.8996 326.6L87.7996 328.5L82.7996 326.7L82.9996 324.1L80.5996 318.6L82.0996 311.3L84.4996 306L82.9996 296.8L82.1996 292L82.3996 288.3L92.1996 288L94.6996 288.5L96.4996 287.5L99.0996 288Z" fill="#ECECEC" stroke="black" stroke-width="0.2" stroke-linecap="round" stroke-linejoin="round"/>
<path name="Ecuador" d="M34.0996 278.8L34.3996 281.2H35.2996L36.7996 280.3L37.6996 280.5L39.2996 282.2L41.6996 282.7L43.1996 281.3L45.0996 280.4L46.3996 279.5L47.4996 279.7L48.7996 281.1L49.3996 282.9L51.6996 285.6L50.5996 287.2L50.2996 289.3L51.4996 288.7L52.1996 289.4L51.8996 291.3L53.5996 293.2L52.4996 293.7L51.9996 295.9L53.2996 298.5L54.6996 303.7L52.5996 304.4L52.0996 305.3L52.4996 306.6L52.0996 309.4H51.1996L49.5996 309.2L48.4996 311.8H46.8996L45.7996 310.4L46.1996 307.8L43.7996 303.9L42.3996 304.6L41.0996 304.8L39.5996 305.1L39.6996 302.8L38.7996 301.1L38.9996 299.2L37.7996 296.5L36.1996 294.2H31.6996L30.3996 295.4L28.7996 295.6L27.7996 297L27.1996 298.7L24.0996 301.6L21.6996 297.8L19.4996 295.3L18.0996 294.4L16.6996 293.1L16.0996 290.3L15.2996 288.9L13.5996 287.8L16.1996 284.7L17.8996 284.8L19.3996 283.8L20.5996 283.7L21.4996 282.9L21.0996 280.8L21.6996 280.1L21.7996 277.9L24.4996 278L28.5996 279.5L29.7996 279.4L30.1996 278.7L33.2996 279.2L34.0996 278.8Z" fill="#ECECEC" stroke="black" stroke-width="0.2" stroke-linecap="round" stroke-linejoin="round"/>
<path name="Cuba" d="M4.19922 274.301L4.99927 271.401L11.0992 271.301L12.3992 269.701L14.1992 269.601L16.3992 271.201H18.0992L19.9993 270.201L21.0992 272.001L18.5992 273.501L16.1992 273.301L13.7993 272.001L11.6992 273.501H10.6992L9.29926 274.401L4.19922 274.301Z" fill="#ECECEC" stroke="black" stroke-width="0.2" stroke-linecap="round" stroke-linejoin="round"/>
<path name="Eritrea" d="M21.8 277.901L21.7 280.101L21.1 280.801L21.5 282.901L20.6 283.701L19.4 283.801L17.9 284.801L16.2 284.701L13.6 287.801L10.7 285.201L8.29999 284.701L7 282.901L7.09998 281.901L5.39996 280.601L5 279.201L8 278.201L9.89996 278.401L11.4 277.601L21.8 277.901Z" fill="#ECECEC" stroke="black" stroke-width="0.2" stroke-linecap="round" stroke-linejoin="round"/>
<path name="Estonia" d="M162.899 344.201V351.901H154.699L152.799 352.201L151.699 351.301L153.599 344.101L162.899 344.201Z" fill="#ECECEC" stroke="black" stroke-width="0.2" stroke-linecap="round" stroke-linejoin="round"/>
<path name="xxx" d="M225.3 129.5L228.4 131.7L232.5 131.3L236.5 131.7V132.9L239.3 132.1L238.8 134L231.2 134.5L231.1 133.5L224.5 132.2L225.3 129.5Z" fill="#ECECEC" stroke="black" stroke-width="0.2" stroke-linecap="round" stroke-linejoin="round"/>
<path name="Finland" d="M234.499 96.8004L231.299 96.6004L228.599 96.0004L222.399 97.6004L226.399 101.2L223.899 102.3H220.999L217.899 99.0004L216.999 100.4L218.599 104.2L221.499 107.2L219.599 108.6L222.799 111.5L225.599 113.4L225.999 117L220.999 115.3L222.799 118.6L219.499 119.2L221.999 124.9L218.499 125L213.899 122.2L211.499 117.1L210.199 112.8L207.899 109.9L204.899 106.2L204.399 104.4L206.599 101.3L206.699 99.2004L208.399 98.3004L208.299 96.6004L211.699 96.1004L213.499 94.7004L216.299 94.8004L217.099 93.7004L218.099 93.5004L221.899 93.7004L225.899 91.9004L229.799 94.2004L234.399 93.6004L234.099 90.4004L236.799 92.1004L235.699 96.1004L234.499 96.8004Z" fill="#ECECEC" stroke="black" stroke-width="0.2" stroke-linecap="round" stroke-linejoin="round"/>
<path name="Gabon" d="M194.1 64.5008L195.6 67.0008L197.3 68.8008L195.6 71.2008L193.2 69.8008L189.7 69.9008L185.2 68.8008L182.9 68.9008L181.9 70.3008L179.9 68.8008L179.1 71.4008L181.8 74.4008L183.1 76.3008L185.6 78.7008L187.7 80.1008L189.8 82.8008L194.6 85.2008L194.1 86.2008L189.1 83.9008L185.9 81.6008L181.1 79.7008L176.4 75.1008L177.4 74.6008L174.9 71.9008L174.6 69.8008L171.3 68.8008L169.9 71.5008L168.3 69.4008V67.2008L168.4 67.1008L172 67.3008L172.8 66.3008L174.6 67.3008L176.6 67.4008L176.5 65.7008L178.2 65.0008L178.5 62.5008L182.4 60.8008L184 61.6008L188 64.3008L192.3 65.5008L194.1 64.5008Z" fill="#ECECEC" stroke="black" stroke-width="0.2" stroke-linecap="round" stroke-linejoin="round"/>
<path name="Georgia" d="M208.799 48.8L211.799 50.5L212.299 52.2L209.399 53.5L207.499 57.7L204.899 62L200.999 63.2L197.799 62.9L194.099 64.5L192.299 65.5L187.999 64.3L183.999 61.6L182.399 60.8L181.199 58.7L180.399 58.6L181.699 54.6L180.599 53.2H183.399L183.599 50.6L186.299 52.3L188.199 52.9L192.299 52.2L192.599 50.9L194.499 50.7L196.799 49.8L197.399 50.2L199.699 49.4L200.699 47.9L202.299 47.5L207.799 49.4L208.799 48.8Z" fill="#ECECEC" stroke="black" stroke-width="0.2" stroke-linecap="round" stroke-linejoin="round"/>
<path name="Ghana" d="M341.6 110.101L343.4 109.901L348.7 105.201L350.6 104.701L352.5 106.601L351.3 109.701L355.2 113.101L356.5 112.701L359 117.501L364.3 118.801L368.6 122.001L376.3 123.101L384.3 121.401L384.5 119.901L388.9 118.701L391.9 115.001L395.5 115.201L397.5 114.001L401.4 114.601L408 117.901L412.3 118.601L419.6 124.201L423.6 124.501L425.3 129.801L424.7 137.801L424.2 142.501L426.7 143.501L425.1 147.001L427.8 152.101L429 156.201L433.3 157.301L434.4 161.401L430.5 167.201L433.7 170.601L436.5 174.501L442.2 177.301L443.2 182.901L445.9 184.001L446.8 186.901L439.3 190.301L438.2 197.701L427.6 195.801L421.4 194.301L415.1 193.501L411.8 185.601L409 184.501L404.9 185.601L399.8 188.701L392.8 186.601L386.7 181.601L381.2 179.801L376.8 173.701L371.6 165.201L368.8 166.201L365.1 164.101L363.4 166.601L359.9 163.201L359.4 159.801H357.7L357.9 155.101L354.4 150.301L347.3 146.701L342.7 140.601L343.2 135.601L345.5 133.401L344.6 129.701L340.8 127.701L336.1 120.101L332.3 115.001L333 113.001L330.1 105.701L333.4 103.801L334.6 106.301L337.8 109.201L341.6 110.101Z" fill="#ECECEC" stroke="black" stroke-width="0.2" stroke-linecap="round" stroke-linejoin="round"/>
<path name="Iraq" d="M336.1 120.1L340.8 127.7L344.6 129.7L345.5 133.4L343.2 135.6L342.7 140.6L347.3 146.7L354.4 150.3L357.9 155.1L357.7 159.8H359.4L359.9 163.2L363.4 166.6L360.1 166.3L356.4 165.7L353.1 171.9L342.9 171.4L326.1 158.5L317.5 154L310.7 152.2L307.6 144.4L318.6 137.7L319.6 130L318.4 125.3L321.1 123.7L323.2 119.7L325.3 118.7L331.6 119.6L333.7 121.2L336.1 120.1Z" fill="#ECECEC" stroke="black" stroke-width="0.2" stroke-linecap="round" stroke-linejoin="round"/>
<path name="The Gambia" d="M291.699 145.101L292.099 147.701L291.499 148.701H291.599L290.899 150.701L288.799 149.901L288.099 154.101L289.599 154.801L288.299 155.701L288.199 157.401L290.699 156.601L291.099 159.101L289.299 169.301L288.599 167.701L284.699 158.301L286.099 156.201L285.699 155.801L286.799 152.801L287.399 148.001L287.999 146.301H288.099H289.899L290.299 145.201L291.699 145.101Z" fill="#ECECEC" stroke="black" stroke-width="0.2" stroke-linecap="round" stroke-linejoin="round"/>
<path name="Guinea-Bissau" d="M146.799 94.3008L150.099 98.8008L149.699 107.301L147.299 106.901L145.199 109.001L143.199 107.301L142.699 99.6008L141.399 96.0008L144.299 96.3008L146.799 94.3008Z" fill="#ECECEC" stroke="black" stroke-width="0.2" stroke-linecap="round" stroke-linejoin="round"/>
<path name="Equatorial Guinea" d="M168.499 60.8L168.099 63.9L169.499 66.6L165.399 65.6L161.499 67.9L161.899 71L161.399 72.8L163.299 76L168.299 79.2L171.199 84.5L177.299 89.6L181.299 89.5L182.699 90.9L181.299 92.2L186.099 94.5L190.099 96.4L194.799 99.8L195.399 100.9L194.599 103.2L191.499 100.2L186.899 99.2L184.999 103.3L188.899 105.7L188.499 109L186.399 109.4L183.899 114.9L181.699 115.4L181.599 113.4L182.499 110L183.599 108.6L181.299 104.9L179.499 101.7L177.299 100.9L175.499 98.2L172.099 97L169.699 94.4L165.899 94L161.599 91.2L156.699 87L152.999 83.4L151.099 77.1L148.499 76.4L144.299 74.3L141.999 75.1L139.099 78.1L136.999 78.5L137.499 75.8L134.699 75L133.199 70.1L134.899 68.2L133.399 65.8L133.499 64L135.699 65.4L138.199 65.1L140.899 62.9L141.799 63.9L144.199 63.7L145.199 61.2L148.999 62L151.099 60.9L151.399 58.4L154.499 59.3L154.999 58.1L159.899 57L161.199 59.1L168.499 60.8Z" fill="#ECECEC" stroke="black" stroke-width="0.2" stroke-linecap="round" stroke-linejoin="round"/>
<path name="Greenland" d="M310.7 152.2L309.8 153.2L299.4 156.4L305.4 162.9L303.8 163.9L303.1 166.1L299 167L297.9 169.3L295.8 171.3L289.6 170.2L289.3 169.3L291.1 159.1L290.7 156.6L291.3 154.7L290.9 150.7L291.6 148.7L297.9 151.3L307.6 144.4L310.7 152.2Z" fill="#ECECEC" stroke="black" stroke-width="0.2" stroke-linecap="round" stroke-linejoin="round"/>
<path name="Guatemala" d="M450.9 17.4004L455.3 17.1004L464.5 11.3004L463.7 13.3004L472.1 18.0004L490.4 33.6004L491.5 30.4004L499.9 33.9004L506.1 32.3004L509.4 33.4004L513.5 37.0004L517.5 38.2004L520.8 40.9004L526.8 40.0004L531.2 43.8004L529.3 48.0004L525.5 48.6004L528 54.8004L526.4 57.7004L515.6 55.6004L516.6 66.9004L514.6 68.3004L505.5 70.8004L514.3 81.8004L511.4 83.4004L513.1 87.1004L509.6 86.1004L506.2 83.8004L498.3 83.2004L489.7 83.0004L488.1 83.7004L479.9 81.0004L477.4 82.4004L477.9 86.1004L468.7 83.9004L465.6 84.8004L465.3 87.6004L462.7 88.8004L457.3 93.2004L456.4 97.8004H454.4L452.1 94.8004L445.4 94.6004L442.9 89.4004L440.3 89.3004L438.8 82.9004L431.2 78.3004L422.6 78.8004L416.9 79.7004L410.3 74.0004L405.5 71.6004L396.3 67.1004L395.2 66.6004L383.2 70.3004L389.4 93.7004L386.8 94.0004L382 89.0004L378.1 87.2004L372.5 88.5004L370.7 90.7004L370.1 89.1004L370.7 86.5004L369.2 84.3004L362.7 82.1004L359 76.4004L355.8 74.8004L355.2 72.7004L360.3 73.3004L359.3 68.7004L363.4 67.7004L368.1 68.6004L367.4 62.5004L365.5 58.6004L360.5 58.9004L355.8 57.4004L350.7 60.1004L346.3 61.5004L343.5 60.4004L343.3 57.2004L339 53.0004L335.4 53.2004L330.1 49.0004L331.8 44.2004L330 43.0004L332.2 36.1004L338.2 39.7004L337.6 35.2004L345.7 28.5004L353.3 28.3004L365.3 32.6004L371.9 35.1004L376.3 32.5004L384 32.4004L391.3 35.6004L392.1 33.7004L399.1 34.0004L399.3 31.1004L389.9 26.8004L393.4 23.8004L391.9 22.2004L395.9 20.6004L390.8 16.4004L392.2 14.3004L409.2 12.2004L410.9 10.7004L421.8 8.40039L424.9 5.90039L434 7.20039L438.4 13.5004L442.7 12.0004L449.8 14.1004L450.9 17.4004Z" fill="#ECECEC" stroke="black" stroke-width="0.2" stroke-linecap="round" stroke-linejoin="round"/>
<path name="Kenya" d="M336.1 333.6L331.2 340.8L331.4 364.2L334.7 369.5L330.7 372.1L329.3 374.8L327.1 375.2L326.3 379.8L324.4 382.4L323.3 386.6L321 388.7L312.9 382.3L312.6 378.6L292.1 365.5L292.5 360.8L291.1 358.3V358L292.7 355.4L295.5 351.2L297.6 346.5L295 339.1L294.3 335.9L291.6 331.4L295 327.6L298.8 323.4L301.7 324.5L301.8 328.1L303.7 330.2H307.7L314.9 335.6L316.7 335.7L318 335.5L319.3 336.2L323.1 336.8L324.7 334.1L329.9 331.4L332.2 333.6H336.1Z" fill="#ECECEC" stroke="black" stroke-width="0.2" stroke-linecap="round" stroke-linejoin="round"/>
<path name="Honduras" d="M513.099 87.1L512.899 88.5L505.999 91.9L504.999 94.5L498.599 95.2L497.999 99.3L492.199 98.4L488.999 99.7L484.899 102.7L486.099 104.2L484.999 105.6L475.399 106.6L468.299 104.5L462.799 105L462.199 101.4L468.199 102.4L469.599 100.5L473.699 101.1L478.999 96.5L471.799 93.1L468.599 94.7L463.999 92.3L466.999 88.2L465.299 87.6L465.599 84.8L468.699 83.9L477.899 86.1L477.399 82.4L479.899 81L488.099 83.7L489.699 83L498.299 83.2L506.199 83.8L509.599 86.1L513.099 87.1Z" fill="#ECECEC" stroke="black" stroke-width="0.2" stroke-linecap="round" stroke-linejoin="round"/>
<path name="Croatia" d="M360.1 166.3L361.6 169.1L361.3 170.6L363.7 175.4L359.8 175.6L358.1 172.5L353.1 171.9L356.4 165.7L360.1 166.3Z" fill="#ECECEC" stroke="black" stroke-width="0.2" stroke-linecap="round" stroke-linejoin="round"/>
<path name="Haiti" d="M291.7 145.101L290.3 145.201L289.9 146.301H288.1L289.4 141.001L291.6 136.501V136.301L294.1 136.601L295.3 139.101L292.6 141.601L291.7 145.101Z" fill="#ECECEC" stroke="black" stroke-width="0.2" stroke-linecap="round" stroke-linejoin="round"/>
<path name="Hungary" d="M51.1992 309.4L50.9993 311.2L51.4993 314.3L50.2993 317.2L51.8992 319L53.6992 319.4L56.0992 322.1L56.2993 324.6L55.6992 325.4L55.2993 330.7L53.7993 330.8L47.9993 327.7L42.7993 322.8L37.9993 319.3L34.1992 315.2L35.5992 313.1L35.8992 311.2L38.4993 307.8L41.0992 304.8L42.3992 304.6L43.7993 303.9L46.1992 307.8L45.7993 310.4L46.8992 311.8H48.4993L49.5992 309.2L51.1992 309.4Z" fill="#ECECEC" stroke="black" stroke-width="0.2" stroke-linecap="round" stroke-linejoin="round"/>
<path name="Libya" d="M235.199 156L233.499 159.1L234.499 161.9L233.399 165.8L235.399 171L236.699 193.8L237.699 217.5L238.199 230.3H231.799V233L209.199 220.7L186.699 208.4L181.199 211.9L177.399 214.3L174.199 210.8L165.399 208L162.899 204L158.399 201L155.899 202.2L153.799 198.6L153.599 195.9L150.199 191.2L152.399 188.5L151.799 184.5L152.399 181L151.999 178L152.799 172.8L152.399 169.8L150.499 164.1L153.099 162.7L153.499 159.9L152.899 157.3L156.499 154.8L158.099 152.7L160.699 150.9L160.799 146L167.199 148.2L169.499 147.6L173.999 148.7L181.299 151.6L184.099 157.3L188.999 158.5L196.799 161.2L202.799 164.4L205.299 162.7L207.799 159.8L206.199 154.9L207.699 151.7L211.399 148.7L215.099 147.9L222.499 149.2L224.499 152L226.499 152.1L228.299 153.2L233.699 153.9L235.199 156Z" fill="#ECECEC" stroke="black" stroke-width="0.2" stroke-linecap="round" stroke-linejoin="round"/>
<path name="Ireland" d="M251.7 554.801L249.7 555.501L246 550.501L249.2 546.501L252.3 544.001L255 542.601L257.2 544.601L258.9 546.601L257 549.701L255.9 551.801L252.8 552.801L251.7 554.801Z" fill="#ECECEC" stroke="black" stroke-width="0.2" stroke-linecap="round" stroke-linejoin="round"/>
<path name="Iran" d="M223.7 4.5L224.7 7.2L221.1 9.2L220.6 12.6L215.8 14.9H211.1L209.7 13L207.2 12.3L206.6 10.8L206.8 9.09999L204.6 8.2L199.5 7.09999L197.8 2L202.9 0.199997L210.8 0.599991L215.3 0L216.2 1.2L218.7 1.59999L223.7 4.5Z" fill="#ECECEC" stroke="black" stroke-width="0.2" stroke-linecap="round" stroke-linejoin="round"/>
<path name="xxx" d="M129.5 42.3002L128.1 42.4002L127 41.9002L127.4 38.4002L128.7 38.2002L129.7 39.6002L129.5 42.3002Z" fill="#ECECEC" stroke="black" stroke-width="0.2" stroke-linecap="round" stroke-linejoin="round"/>
<path name="Iceland" d="M87.3994 132.901L89.2994 137.001L89.5994 140.901L91.4995 147.701L92.8994 149.101L91.8994 151.601L84.7994 152.701L82.2994 155.001L79.1994 155.601L78.8994 160.401L72.4995 162.901L70.3994 166.101L65.8994 167.801L60.4995 168.801L51.5994 173.601L51.4995 181.201H50.5994L50.6994 184.601L47.2994 184.801L45.4995 186.301H42.9995L40.9995 185.401L36.3994 186.101L34.4995 191.101L32.6994 191.601L29.9995 199.701L22.0994 206.601L20.0994 215.501L17.6994 218.401L16.9995 220.701L4.49945 221.201H4.39941L4.6994 218.201L6.89941 216.501L8.79944 213.101L8.49945 210.901L10.4995 206.401L13.6994 202.301L15.5994 201.301L17.1994 197.601L17.3994 194.101L19.4995 190.201L23.2994 187.801L26.8994 181.301L26.9995 181.201L29.8994 178.701L34.9995 178.001L39.3994 173.601L42.1994 171.901L46.8994 166.501L45.6994 158.601L47.8994 153.001L48.7994 149.601L52.3994 145.301L57.7994 142.401L61.8994 139.701L65.5994 133.101L67.3994 129.101L71.2994 129.201L74.3994 131.901L79.4995 131.501L84.9995 132.901H87.3994Z" fill="#ECECEC" stroke="black" stroke-width="0.2" stroke-linecap="round" stroke-linejoin="round"/>
<path name="Israel" d="M242 67.2L240.7 64.3L240.9 61.6L240.3 58.9L236.9 55.1L234.9 52.5L233.1 50.7L231.5 50L232.6 49.1L235.8 48.5L239.8 50.4L241.8 50.7L244.4 52.4L244.3 54.5L246.3 55.5L247.4 58.1L249.4 59.7L249.2 60.7L250.2 61.3L248.9 61.8L245.9 61.6L245.3 60.7L244.3 61.2L244.9 62.3L243.8 64.4L243.2 66.5L242 67.2Z" fill="#ECECEC" stroke="black" stroke-width="0.2" stroke-linecap="round" stroke-linejoin="round"/>
<path name="Jamaica" d="M218.1 93.5002L217.1 93.7002L216.3 94.8002L213.5 94.7002L211.7 96.1002L208.3 96.6002L206 95.1002L205 92.4002L205.5 90.2002L206.2 90.3002L206.3 89.0002L209.2 88.0002L210.4 87.7002L212.1 87.4002L214.5 87.2002L217.3 89.3002L218.1 93.5002Z" fill="#ECECEC" stroke="black" stroke-width="0.2" stroke-linecap="round" stroke-linejoin="round"/>
<path name="Jordan" d="M122.8 235.7L122.9 250.5L119.8 254.8L119.4 258.8L114.4 259.8L106.7 260.3L104.7 262.6L101.1 262.9H97.4996L96.0996 261.7L92.9996 262.6L87.6996 265.3L86.5996 267.3L82.2996 270.1L81.4996 271.8L79.0996 273.1L76.3996 272.2L74.8996 273.8L73.9996 278.2L69.4996 283.5L69.6996 285.7L68.0996 288.4L68.4996 292.1L66.0996 293.1L64.7996 293.9L63.8996 291.2L62.2996 291.9L61.2996 291.8L60.2996 293.6H55.8996L54.3996 292.6L53.5996 293.2L51.8996 291.3L52.1996 289.4L51.4996 288.7L50.2996 289.3L50.5996 287.2L51.6996 285.6L49.3996 282.9L48.7996 281.1L47.4996 279.7L46.3996 279.5L45.0996 280.4L43.1996 281.3L41.6996 282.7L39.2996 282.2L37.6996 280.5L36.7996 280.3L35.2996 281.2H34.3996L34.0996 278.8L34.3996 276.8L33.8996 274.4L31.8996 272.6L30.7996 268.9L30.5996 264.9L32.4996 263.7L33.4996 259.9L35.2996 259.8L39.1996 261.6L42.3996 260.3L44.4996 260.7L45.3996 259.3L67.8996 259.2L69.1996 254.7L68.1996 253.9L65.6996 226.2L63.2996 198.5L71.7996 198.4L90.3996 212.4L109.1 226.4L110.4 229.4L113.9 231.2L116.5 232.3L116.6 236.4L122.8 235.7Z" fill="#ECECEC" stroke="black" stroke-width="0.2" stroke-linecap="round" stroke-linejoin="round"/>
<path name="Kazakhstan" d="M203.2 84.1006L202.4 85.5006L201 86.1006L200.6 84.9006L198.7 88.0006L199.2 90.1006L198.1 89.6006L196.4 87.5006L194.1 86.2006L194.6 85.2006L195 81.7006L196.6 80.2006L197.5 79.6006L198.9 80.7006L199.8 81.6006L201.5 82.3006L203.6 83.6006L203.2 84.1006Z" fill="#ECECEC" stroke="black" stroke-width="0.2" stroke-linecap="round" stroke-linejoin="round"/>
<path name="xxx" d="M279.299 530.4H275.199L274.899 527.5L274.299 524.6L273.899 522.3L275.299 515.2L274.199 510.6L271.999 501.6L278.199 494.3L279.899 489.7L280.699 489.1L281.599 485.3L280.799 483.4L281.199 478.6L282.499 474.2L282.899 466L280.099 464L277.399 463.5L276.299 461.9L273.699 460.6L268.999 460.7L268.799 458.3L268.399 453.7L285.599 448.4L288.799 451.5L290.299 450.9L292.499 452.5L292.699 455.1L291.399 458.1L291.599 462.6L295.099 466.6L296.999 462.1L299.499 460.8L299.399 452.5L297.199 447.9L295.299 445.8H294.899L294.299 438.5L295.799 432.4L297.999 432.2L304.699 434L306.199 433.2L310.099 433L312.199 431.1L315.599 431.2L321.799 428.7L326.399 425L327.299 427.8L326.799 434.2L327.299 439.9L327.099 449.9L327.899 453L325.999 457.6L323.599 462.1L319.899 466.1L314.599 468.5L308.099 471.6L301.499 478.5L299.299 479.7L295.099 484.3L292.799 485.7L291.999 490.3L294.399 495.2L295.299 498.9V500.9L296.299 500.5L295.799 506.8L294.699 509.8L295.899 510.9L294.899 513.6L292.499 515.9L287.799 518L280.899 521.5L278.399 523.9L278.699 526.6L279.999 527L279.299 530.4Z" fill="#ECECEC" stroke="black" stroke-width="0.2" stroke-linecap="round" stroke-linejoin="round"/>
<path name="Kyrgyzstan" d="M71.7996 198.401L63.2996 198.501L65.6996 226.201L68.1996 253.901L69.1996 254.701L67.8996 259.201L45.3996 259.301L44.4996 260.701L42.3996 260.301L39.1996 261.601L35.2996 259.801L33.4996 259.901L32.4996 263.701L30.5996 264.901L26.9996 260.501L23.5996 255.701L19.9996 254.001L17.2996 252.201H14.1996L11.3996 253.601L8.69958 253.101L6.69958 255.101L6.29962 251.701L7.8996 248.501L8.69958 242.501L8.29962 236.101L7.69958 232.901L8.29962 229.701L6.8996 226.701L4.09961 223.901L5.3996 221.801H27.0996L26.1996 212.501L27.6996 209.201L32.8996 208.701L33.0996 192.201L51.0996 192.601L51.2996 182.801L71.7996 198.401Z" fill="#ECECEC" stroke="black" stroke-width="0.2" stroke-linecap="round" stroke-linejoin="round"/>
<path name="Cambodia" d="M294.899 445.8H295.299L297.199 447.9L299.399 452.5L299.499 460.8L296.999 462.1L295.099 466.6L291.599 462.6L291.399 458.1L292.699 455.1L292.499 452.5L290.299 450.9L288.799 451.5L285.599 448.4L282.699 446.8L284.699 440.8L286.499 438.6L285.599 433.2L286.899 428L287.899 426.3L286.599 420.9L283.999 418L289.499 419.2L290.499 420.9L290.399 421.7L292.199 425.8L292.399 433.5L290.599 437.1L292.199 441.8L291.999 444.6L293.199 446.5L293.099 448.9L293.999 450.3L294.999 448.7L296.899 451.2L297.099 450.4L296.099 447L294.999 446.7L294.899 445.8Z" fill="#ECECEC" stroke="black" stroke-width="0.2" stroke-linecap="round" stroke-linejoin="round"/>
<path name="Republic of Korea" d="M228.8 471.2L233.4 469.8L237 470.1L239.2 471.6V472.1L236 473.6H234.3L230.6 476.1L228.6 473.4L219.9 475.7L215.7 475.9L214.9 498.8L209.4 499L208.8 517.7L207.7 541.4L202.7 544.7L199.8 545.2L196.4 544L193.9 543.5L193.1 540.8L191.1 539L188.3 542.2L184.4 537.3L182.4 532.7L181.4 526.4L180.2 521.8L178.6 511.9L178.7 504.2L178.1 500.7L176 498L173.2 492.7L170.4 485L169.3 481L164.9 474.7L164.6 469.8L167.3 468.6L170.7 467.5L174.3 467.7L177.6 470.6L178.4 470.1L201.1 469.9L204.9 472.9L218.4 473.8L228.8 471.2Z" fill="#ECECEC" stroke="black" stroke-width="0.2" stroke-linecap="round" stroke-linejoin="round"/>
<path name="Kuwait" d="M181.2 211.9L182.8 221.9L185 223.6L185.1 225.6L187.5 227.8L186.3 230.6L184.5 243.6L184.3 252L177.3 258L175 266.5L177.4 268.9V273L181.1 273.1L180.5 276.2L179 276.5L178.8 278.6L177.8 278.7L173.9 271.7L172.5 271.4L168.2 275L163.8 273.1L160.8 272.8L159.2 273.7L155.9 273.5L152.6 276.2L149.7 276.4L142.9 273.1L140.2 274.6L137.3 274.5L135.2 272.1L129.6 269.7L123.5 270.5L122.1 271.8L121.3 275.5L119.7 278.1L119.3 283.9L115 280.2H113L111.1 282.1L111.2 277.7L104.7 276.2L104.5 273.1L101.4 268.9L100.6 266L101.1 262.9L104.7 262.6L106.7 260.3L114.4 259.8L119.4 258.8L119.8 254.8L122.9 250.5L122.8 235.7L130.6 232.9L146.6 220.3L165.4 208L174.2 210.8L177.4 214.3L181.2 211.9Z" fill="#ECECEC" stroke="black" stroke-width="0.2" stroke-linecap="round" stroke-linejoin="round"/>
<path name="Nigeria" d="M178.799 278.6L181.099 281.1L180.499 282.3L180.199 284.4L175.499 289.4L174.099 293.5L173.299 296.8L172.099 298.3L170.999 302.8L167.999 305.4L167.199 308.6L165.899 311.2L165.399 313.9L161.499 316.1L158.299 313.4L156.199 313.5L152.799 317.3H151.199L148.499 323.5L147.099 328.1L141.199 330.4L139.099 330.1L136.899 331.5L132.399 331.4L129.299 327.3L127.399 322.7L123.399 318.5H119.199H114.199L114.499 308.2L114.299 304.1L115.399 300.1L117.099 298.1L119.899 294.1L119.299 292.4L120.399 289.8L119.099 286L119.299 283.9L119.699 278.1L121.299 275.5L122.099 271.8L123.499 270.5L129.599 269.7L135.199 272.1L137.299 274.5L140.199 274.6L142.899 273.1L149.699 276.4L152.599 276.2L155.899 273.5L159.199 273.7L160.799 272.8L163.799 273.1L168.199 275L172.499 271.4L173.899 271.7L177.799 278.7L178.799 278.6Z" fill="#ECECEC" stroke="black" stroke-width="0.2" stroke-linecap="round" stroke-linejoin="round"/>
<path name="Lebanon" d="M396.4 251.8L394.2 247.3L389 236.7L405.3 230.3L407.9 217.5L404.9 212.9V210.3L406.2 207.7L406 205.1L408.4 203.8L407.3 202.9V198.7H410.1L413.1 203.1L416.4 205.4L420.5 206.3L423.9 207.4L426.8 211.1L428.5 213.2L430.5 214.1L430.7 215.5L429 219.3L428.3 221.1L426.1 223.2L424.4 227.6L421.9 227.2L420.9 228.8L420.2 232L421.3 236.3L420.8 237.1H418.3L415 239.5L414.7 242.6L413.5 244L410 243.9L408 245.5L408.2 248.1L405.6 249.9L402.5 249.3L398.9 251.5L396.4 251.8Z" fill="#ECECEC" stroke="black" stroke-width="0.2" stroke-linecap="round" stroke-linejoin="round"/>
<path name="Liberia" d="M408.8 193.601L407.5 191.401L408.9 189.301L409.6 189.801L409.4 192.501L408.8 193.601Z" fill="#ECECEC" stroke="black" stroke-width="0.2" stroke-linecap="round" stroke-linejoin="round"/>
<path name="India" d="M514.2 130.801L510.4 136.201L504.7 137.201L496.2 135.601L494.2 138.401L497.5 144.001L500.4 148.401L505.5 151.501L501.7 155.201L502.7 159.801L498.8 166.301L496.6 172.801L492.1 179.501L485.6 179.001L480.7 185.801L484.7 188.601L486.1 193.601L489.6 196.801L491.4 202.301H479.3L476.1 206.601L471.9 205.001L469.7 200.401L464.8 195.501L454.8 196.701L445.8 196.801L438.2 197.701L439.3 190.301L446.8 186.901L445.9 184.001L443.2 182.901L442.2 177.301L436.5 174.501L433.7 170.601L430.5 167.201L440.1 170.501L445.4 169.501L448.8 170.301L449.7 168.901L453.6 169.501L460.2 166.801L459.4 161.401L461.7 157.701H465.8L466 156.001L470 155.101L472.1 155.701L473.9 153.901L472.8 150.001L474.2 146.201L477.3 144.501L474.2 140.301L479.4 140.501L480.3 138.201L479.5 135.701L481.5 133.001L480.1 129.801L478.2 127.101L480.6 124.301L485.9 123.001L491.8 122.201L494.2 121.101L497.1 120.301L501.8 123.301L504.7 128.301L514.2 130.801Z" fill="#ECECEC" stroke="black" stroke-width="0.2" stroke-linecap="round" stroke-linejoin="round"/>
<path name="Sri Lanka" d="M192.5 11.7002L198.4 12.4002L207.2 12.3002L209.7 13.0002L211.1 14.9002L211.7 17.6002L213.4 19.9002L213.8 22.3002L211 23.6002L212.9 26.4002L213.4 29.2002L216.6 34.6002L216.3 36.3002L214 37.0002L210.2 42.2002L211.8 45.0002L210.7 44.6002L205.7 42.2002L202.2 43.1002L199.8 42.5002L197 43.8002L194.3 41.6002L192.4 42.5002L192.1 42.1002L189.5 39.0002L185.8 38.7002L185.1 36.7002L181.7 36.0002L181.1 37.6002L178.3 36.3002L178.5 34.6002L174.8 34.1002L172.3 32.1002L169.9 28.2002L170.1 26.0002L168.6 22.7002L166.7 20.6002L167.9 18.9002L166.5 15.8002L169.6 14.0002L176.7 11.2002L182.5 9.2002L187.3 10.2002L187.9 11.7002H192.5Z" fill="#ECECEC" stroke="black" stroke-width="0.2" stroke-linecap="round" stroke-linejoin="round"/>
<path name="Lesotho" d="M290.9 150.7L291.3 154.7L290.7 156.6L288.2 157.4L288.3 155.7L289.6 154.8L288.1 154.1L288.8 149.9L290.9 150.7Z" fill="#ECECEC" stroke="black" stroke-width="0.2" stroke-linecap="round" stroke-linejoin="round"/>
<path name="Lithuania" d="M382.7 200.601L381.2 201.101L379.4 199.801L378.6 195.101L379.7 191.801L381.2 191.101L383 193.101L383.5 196.801L382.7 200.601Z" fill="#ECECEC" stroke="black" stroke-width="0.2" stroke-linecap="round" stroke-linejoin="round"/>
<path name="Luxembourg" d="M231.5 50L233.1 50.7L234.9 52.5L236.9 55.1L240.3 58.9L240.9 61.6L240.7 64.3L242 67.2L244.4 68.4L246.7 67.3L249.1 68.4L249.5 70.1L247.2 71.4L245.6 70.8L245.2 78.5L242.1 77.8L238.1 75.5L232.2 77L229.9 78.6L222.3 78.2L218.3 77.3L216.4 77.7L214.6 75.1L213.6 74L214.6 72.9L213.3 72.2L211.8 73.6L208.7 71.7L208 69.1L204.8 67.7L204 65.6L201 63.2L204.9 62L207.5 57.7L209.4 53.5L212.3 52.2L214.3 50.8L217.5 51.5H220.7L223.2 53.1L224.8 52.1L228.4 51.5L229.4 50H231.5Z" fill="#ECECEC" stroke="black" stroke-width="0.2" stroke-linecap="round" stroke-linejoin="round"/>
<path name="Latvia" d="M271.399 366L273.599 369.6L273.299 373.4L271.699 374.2L268.599 373.8L266.899 377.5L263.399 377L263.999 373.4L264.799 372.9L264.999 369.1L266.599 367.3L267.999 368L271.399 366Z" fill="#ECECEC" stroke="black" stroke-width="0.2" stroke-linecap="round" stroke-linejoin="round"/>
<path name="Morocco" d="M51.4996 181.2L51.3996 181.6L51.2996 182.8L51.0996 192.6L33.0996 192.2L32.8996 208.7L27.6996 209.2L26.1996 212.5L27.0996 221.8H5.3996L4.09961 223.9L4.3996 221.2H4.49963L16.9996 220.7L17.6996 218.4L20.0996 215.5L22.0996 206.6L29.9996 199.7L32.6996 191.6L34.4996 191.1L36.3996 186.1L40.9996 185.4L42.9996 186.3H45.4996L47.2996 184.8L50.6996 184.6L50.5996 181.2H51.4996Z" fill="#ECECEC" stroke="black" stroke-width="0.2" stroke-linecap="round" stroke-linejoin="round"/>
<path name="Moldova" d="M353.1 171.9L358.1 172.5L359.8 175.6L363.7 175.4L366.4 181L369.3 182.4L370.5 184.7L374.5 187.4L375.2 190L374.8 192.2L375.7 194.3L377.5 196.1L378.4 198.2L379.4 199.8L381.2 201.1L382.7 200.6L384 203.1L384.3 204.5L387 211.1L403.9 214.3L404.9 212.9L407.9 217.5L405.3 230.3L389 236.7L373.1 239.2L368.1 242.1L364.6 248.8L362 249.9L360.5 247.8L358.4 248.1L352.9 247.4L351.8 246.8L345.4 246.9L343.9 247.5L341.5 245.9L340.2 249L341 251.7L338.6 253.8L337.7 251L335.9 249.1L335.4 246.5L332.3 244.2L329 238.8L327.1 233.6L323 229.2L320.5 228.1L316.4 222L315.5 217.6V213.8L311.9 206.6L309.1 204.1L306.1 202.8L304 199.1L304.2 197.7L302.4 194.3L300.7 192.9L298.2 188.1L294.4 183L291.3 178.6H288.6L289.1 175.1L289.2 172.8L289.6 170.2L295.8 171.3L297.9 169.3L299 167L303.1 166.1L303.8 163.9L305.4 162.9L299.4 156.4L309.8 153.2L310.7 152.2L317.5 154L326.1 158.5L342.9 171.4L353.1 171.9Z" fill="#ECECEC" stroke="black" stroke-width="0.2" stroke-linecap="round" stroke-linejoin="round"/>
<path name="Madagascar" d="M303.6 266.1L302.9 271.6L300.9 278L297.6 281.1L295.3 286.1L294.8 288.7L292.2 290.5L290.7 297.2V298L289.9 297.8L290 294.6L289.2 292.4L286.3 289.9L285.4 285.3L286 280.5L283.4 280.1L283 281.5L279.6 281.9L281.1 283.7L281.6 287.6L278.6 291.1L275.9 295.7L273 296.4L268.2 292.7L266.1 294L265.6 295.8L262.7 297.1L262.5 298.4H256.9L256.1 297.1L252 296.8L250 297.9L248.4 297.4L245.5 293.6L244.5 291.9L240.4 292.8L238.9 295.7L237.6 301.5L235.6 302.7L233.9 303.4L233.4 303.1L231.5 301.2L231.1 299.2L231.9 296.6V293.9L228.6 289.9L227.9 287.2V285.6L225.8 283.7L225.7 280L224.4 277.5L222.5 277.9L223 275.5L224.4 272.9L223.7 270.2L225.5 268.2L224.3 266.7L225.6 262.8L228.1 258L232.9 258.5L231.8 233V230.3H238.2L237.7 217.5H260H281.5H303.6L305.7 223.8L304.5 224.9L305.7 231.6L308.2 239.2L310.4 240.8L313.6 243.2L310.9 246.8L306.9 247.9L305.2 249.9L304.9 254.1L302.9 263.6L303.6 266.1Z" fill="#ECECEC" stroke="black" stroke-width="0.2" stroke-linecap="round" stroke-linejoin="round"/>
<path name="South Sudan" d="M290.699 298.001L290.899 303.001L290.099 304.901L287.099 305.101L285.199 308.701L288.699 309.201L291.699 312.301L292.699 314.901L295.299 316.401L298.799 323.401L294.999 327.601L291.599 331.401L288.099 334.401H284.099L279.599 335.901L275.999 334.401L273.699 336.201L268.599 331.901L267.199 329.201L264.099 330.501L261.499 330.101L259.999 331.201L257.399 330.401L253.899 325.101L252.999 323.101L248.699 320.501L247.299 316.701L244.899 313.901L240.999 310.601L240.899 308.501L237.799 305.901L233.899 303.401L235.599 302.701L237.599 301.501L238.899 295.701L240.399 292.801L244.499 291.901L245.499 293.601L248.399 297.401L249.999 297.901L251.999 296.801L256.099 297.101L256.899 298.401H262.499L262.699 297.101L265.599 295.801L266.099 294.001L268.199 292.701L272.999 296.401L275.899 295.701L278.599 291.101L281.599 287.601L281.099 283.701L279.599 281.901L282.999 281.501L283.399 280.101L285.999 280.501L285.399 285.301L286.299 289.901L289.199 292.401L289.999 294.601L289.899 297.801L290.699 298.001Z" fill="#ECECEC" stroke="black" stroke-width="0.2" stroke-linecap="round" stroke-linejoin="round"/>
<path name="Macedonia" d="M30.6 264.9L30.8 268.9L31.9 272.6L33.9 274.4L34.4 276.8L34.1 278.8L33.3 279.2L30.2 278.7L29.8 279.4L28.6 279.5L24.5 278L21.8 277.9L11.4 277.6L9.89996 278.4L8 278.2L5 279.2L4.19995 274.3L9.29999 274.4L10.7 273.5H11.7L13.8 272L16.2 273.3L18.6 273.5L21.1 272L20 270.2L18.1 271.2H16.4L14.2 269.6L12.4 269.7L11.1 271.3L5 271.4L2.69995 266.4L0 264.2L2.5 262.9L5.29999 258.4L6.69995 255.1L8.69995 253.1L11.4 253.6L14.2 252.2H17.3L20 254L23.6 255.7L27 260.5L30.6 264.9Z" fill="#ECECEC" stroke="black" stroke-width="0.2" stroke-linecap="round" stroke-linejoin="round"/>
<path name="Mali" d="M41.0996 304.8L38.4996 307.8L35.8996 311.2L35.5996 313.1L34.1996 315.2L32.6996 314.7L28.6996 312.1L25.6996 308.7L24.7996 306.3L24.0996 301.6L27.1996 298.7L27.7996 297L28.7996 295.6L30.3996 295.4L31.6996 294.2H36.1996L37.7996 296.5L38.9996 299.2L38.7996 301.1L39.6996 302.8L39.5996 305.1L41.0996 304.8Z" fill="#ECECEC" stroke="black" stroke-width="0.2" stroke-linecap="round" stroke-linejoin="round"/>
<path name="Myanmar" d="M214.6 75.1004L213.5 76.5004L214.2 78.9004L217 81.6004L215.2 83.6004L214.6 85.6004L215.2 86.4004L214.5 87.2004L212.1 87.4004L210.4 87.7004L210.1 87.2004L210.7 86.5004L211.1 84.9004L210.4 85.0004L209.3 83.8004L208.4 83.5004L207.6 82.5004L206.6 82.1004L205.8 81.2004L204.9 81.6004L204.4 83.7004L203.2 84.1004L203.6 83.6004L201.5 82.3004L199.8 81.6004L198.9 80.7004L197.5 79.6004L198.6 79.3004L199.1 76.4004L196.4 73.9004L197.5 71.1004L195.6 71.2004L197.3 68.8004L195.6 67.0004L194.1 64.5004L197.8 62.9004L201 63.2004L204 65.6004L204.8 67.7004L208 69.1004L208.7 71.7004L211.8 73.6004L213.3 72.2004L214.6 72.9004L213.6 74.0004L214.6 75.1004Z" fill="#ECECEC" stroke="black" stroke-width="0.2" stroke-linecap="round" stroke-linejoin="round"/>
<path name="Montenegro" d="M210.699 44.6006L209.499 46.3006L208.799 48.8006L207.799 49.4006L202.299 47.5006L200.699 47.9006L199.699 49.4006L197.399 50.2006L196.799 49.8006L194.499 50.7006L192.599 50.9006L192.299 52.2006L188.199 52.9006L186.299 52.3006L183.599 50.6006L182.899 48.5006L183.199 47.7006L183.799 46.3006L185.999 46.4006L187.599 45.8006L187.699 45.2006L188.599 44.9006L188.799 43.5006L189.899 43.2006L190.599 42.1006H192.099L192.399 42.5006L194.299 41.6006L196.999 43.8006L199.799 42.5006L202.199 43.1006L205.699 42.2006L210.699 44.6006Z" fill="#ECECEC" stroke="black" stroke-width="0.2" stroke-linecap="round" stroke-linejoin="round"/>
<path name="Mongolia" d="M182.4 60.8006L178.5 62.5006L178.2 65.0006L176.5 65.7006L176.6 67.4006L174.6 67.3006L172.8 66.3006L172 67.3006L168.4 67.1006L169.5 66.6006L168.1 63.9006L168.5 60.8006L172.7 61.3006L175.1 59.8006L179.5 59.7006L180.4 58.6006L181.2 58.7006L182.4 60.8006Z" fill="#ECECEC" stroke="black" stroke-width="0.2" stroke-linecap="round" stroke-linejoin="round"/>
<path name="Mozambique" d="M274.3 524.6L274.9 527.5L275.2 530.4L273.8 533.2L270.6 533.9L267.5 530.4L267.6 528.2L269.3 525.8L269.9 523.9L271.6 523.5L274.3 524.6Z" fill="#ECECEC" stroke="black" stroke-width="0.2" stroke-linecap="round" stroke-linejoin="round"/>
<path name="Mauritania" d="M307.6 144.4L297.9 151.3L291.6 148.7H291.5L292.1 147.7L291.7 145.1L292.6 141.6L295.3 139.1L294.1 136.6L291.6 136.3L290.5 131.4L291.5 128.7L292.8 127.3L294 125.9L293.8 122.4L295.7 123.6L301.3 121.8L304.3 123H308.7L314.4 120.6L317.3 120.7L323.2 119.7L321.1 123.7L318.4 125.3L319.6 130L318.6 137.7L307.6 144.4Z" fill="#ECECEC" stroke="black" stroke-width="0.2" stroke-linecap="round" stroke-linejoin="round"/>
<path name="Malawi" d="M231.8 233L232.9 258.5L228.1 258L225.6 262.8L224.3 266.7L225.5 268.2L223.7 270.2L224.4 272.9L223 275.5L222.5 277.9L224.4 277.5L225.7 280L225.8 283.7L227.9 285.6V287.2L224.3 288.3L221.5 290.9L217.5 297.9L212.3 300.9L206.8 300.5L205.2 301.1L205.8 303.3L202.9 305.6L200.5 308.1L193.4 310.5L192 309.1L191 308.9L190 310.6L185.4 311.1L186.2 309.3L184.4 304.9L183.6 302.3L181.1 301.2L177.7 297.4L178.9 294.4L181.5 295L183.1 294.6H186.3L183.1 288.8L183.3 284.5L182.8 280.3L180.5 276.2L181.1 273.1L177.4 273V268.9L175 266.5L177.3 258L184.3 252L184.5 243.6L186.3 230.6L187.5 227.8L185.1 225.6L185 223.6L182.8 221.9L181.2 211.9L186.7 208.4L209.2 220.7L231.8 233Z" fill="#ECECEC" stroke="black" stroke-width="0.2" stroke-linecap="round" stroke-linejoin="round"/>
<path name="Namibia" d="M103.999 288.1L103.299 291.5L104.999 293.4L106.999 295.6L107.199 298.8L108.399 300.1L108.099 314.9L109.499 319.3L104.999 320.7L103.699 318.4L102.199 314.3L101.699 311.1L102.999 305.4L101.599 303L100.999 298V293.3L98.6992 290L99.0992 288L103.999 288.1Z" fill="#ECECEC" stroke="black" stroke-width="0.2" stroke-linecap="round" stroke-linejoin="round"/>
<path name="Niger" d="M469.599 100.5L468.199 102.4L462.199 101.4L462.799 105L468.299 104.5L475.399 106.6L484.999 105.6L488.099 111.6L489.599 110.9L493.299 112.4L493.799 114.9L495.599 118.5H490.199L486.399 118L483.899 120.9L481.699 121.5L480.199 122.9L477.499 120.8L476.599 115.4L474.899 115.1L474.999 113.1L471.699 111.7L469.999 113.9L470.199 116.5L469.599 117.4L466.399 117.3L465.499 120.2L463.399 119L459.999 121L458.199 120.3L459.499 113.8L457.099 109L452.899 107.5L453.499 104.7L457.899 105L459.399 101.5L459.899 97.4004L466.399 95.9004L466.199 98.9004L467.499 100.6L469.599 100.5Z" fill="#ECECEC" stroke="black" stroke-width="0.2" stroke-linecap="round" stroke-linejoin="round"/>
<path name="xxx" d="M450.899 118.9L449.299 118.7L446.399 117L446.099 119.2L441.899 120.5L442.099 125.6L439.499 127.6L435.499 128.5L435.099 131.4L431.199 132.3L425.299 129.8L423.599 124.5L419.599 124.2L412.299 118.6L407.999 117.9L401.399 114.6L397.499 114L395.499 115.2L391.899 115L388.899 118.7L384.499 119.9L382.599 115.4L381.999 108.7L377.399 106.5L377.799 102.2L374.299 101.8L374.199 96.4L379.499 98L383.599 96L378.899 92.1L376.499 88.5L372.699 90.1L373.299 94.8L370.699 90.7L372.499 88.5L378.099 87.2L381.999 89L386.799 94L389.399 93.7L395.299 93.6L393.599 90.4L397.399 88.2L400.799 84.5L408.699 87.9L410.599 92.9L412.899 94.2L418.399 93.9L420.499 95.1L424.799 101.7L431.899 106.1L436.099 109.1L442.399 112.2L450.099 115L450.899 118.9Z" fill="#ECECEC" stroke="black" stroke-width="0.2" stroke-linecap="round" stroke-linejoin="round"/>
<path name="Nicaragua" d="M160.8 146L160.7 150.9L158.1 152.7L156.5 154.8L152.9 157.3L153.5 159.9L153.1 162.7L150.5 164.1L147.9 152.6L144.5 150L144.4 148.5L139.9 144.6L139.3 139.8L142.5 136.2L143.6 130.9L142.6 124.8L143.6 121.5L149.3 119L153 119.7V123L157.4 120.6L157.8 121.8L155.3 125L155.4 127.9L157.3 129.5L156.8 135.1L153.3 138.3L154.5 141.8L157.3 141.9L158.7 145L160.8 146Z" fill="#ECECEC" stroke="black" stroke-width="0.2" stroke-linecap="round" stroke-linejoin="round"/>
<path name="Nepal" d="M314.3 92.2L319.8 91.9L325.4 95.1L326.7 97.3L326.8 100.4L331 102L333.4 103.8L330.1 105.7L333 113L332.3 115L336.1 120.1L333.7 121.2L331.6 119.6L325.3 118.7L323.2 119.7L317.3 120.7L314.4 120.6L308.7 123H304.3L301.3 121.8L295.7 123.6L293.8 122.4L294 125.9L292.8 127.3L291.5 128.7L289.2 125.8L290.9 123.4L287.7 124L283.1 122.5L279.9 126.2L271.9 126.9L267.2 123.5L261.5 123.3L260.5 125.9L256.9 126.7L251.5 123.3L245.7 123.4L241.9 117L237.7 113.5L239.7 108.5L236.1 105.4L241.2 99.3L249.2 99.1L250.8 94.2L260.8 95.1L266.4 91L272.2 89.2L280.7 89L290.5 93.5L298.4 96L304.2 95L308.8 95.6L314.3 92.2Z" fill="#ECECEC" stroke="black" stroke-width="0.2" stroke-linecap="round" stroke-linejoin="round"/>
<path name="Pakistan" d="M234.5 96.8004L235.7 96.1004L236.8 92.1004L234.1 90.4004L239.1 88.4004L243.7 89.2004L244.6 91.7004L249.4 93.7004L248.7 95.3004L242.5 95.6004L240.5 97.6004L236.6 101L234.6 98.1004L234.5 96.8004Z" fill="#ECECEC" stroke="black" stroke-width="0.2" stroke-linecap="round" stroke-linejoin="round"/>
<path name="Tanzania" d="M279.6 365.3L279.4 369.2L278.3 373.7L279.9 376.2L282.4 374.7L285.7 374.3L286.4 375.1L289.7 373.5L287.4 371.3L289.3 368.4L292.1 365.5L312.6 378.6L312.9 382.3L321 388.7L318.2 396.7L318.5 400.3L322 402.6L322.2 404.3L320.5 408.2L320.8 410.1L320.4 413.2L322.2 417.2L324.4 423.6L326.4 425L321.8 428.7L315.6 431.2L312.2 431.1L310.1 433L306.2 433.2L304.7 434L298 432.2L295.8 432.4L295.9 432.3L294.1 429.9L293.8 423.1L290.9 419.7L290.5 420.9L289.5 419.2L284 418L280.8 416.1L277.2 415L275 413.9L274.7 413.7L272 407.1L271.6 403.2L267.1 398.8L268.5 396.4L267.4 393.8L267.6 391.1L266.6 390.2L266.9 387.4L267.5 387.3L269.5 385L271.8 381.6L273.2 380.3V378.2L272 376.7L271.7 374.2L273.3 373.4L273.6 369.6L271.4 366L273.4 365.2L279.6 365.3Z" fill="#ECECEC" stroke="black" stroke-width="0.2" stroke-linecap="round" stroke-linejoin="round"/>
<path name="Uganda" d="M291.6 331.4L294.3 335.9L295 339.1L297.6 346.5L295.5 351.2L292.7 355.4L291.1 358V358.3L290.9 357.9L287.9 356.6L285.5 358.2L281.9 359.1L279.3 362.8L279.6 365.3L273.4 365.2L271.4 366L268 368L266.6 367.3L266.7 362.5L268 360L268.3 354.9L269.5 351.9L271.7 348.6L273.8 346.8L275.7 344.6L273.4 343.7L273.7 336.2L276 334.4L279.6 335.9L284.1 334.4H288.1L291.6 331.4Z" fill="#ECECEC" stroke="black" stroke-width="0.2" stroke-linecap="round" stroke-linejoin="round"/>
<path name="Poland" d="M269.8 31.5L272.1 34.2L272.2 35.4L278.9 37.6L282.5 36.6L286.1 39.5L289 39.4L296.7 41.4L297.1 43.3L295.8 46.5L297.6 50L297.3 52.1L292.5 52.5L290.3 54.3L290.7 57L286.8 57.5L283.8 59.6L279.2 59.9L275.2 62.3L276.2 66.2L279 67.7L284.1 67.3L283.5 69.6L278.1 70.7L271.8 74.3L268.7 73L269.4 70.1L263.5 68.2L264.2 67L268.8 64.9L267.1 63.5L259 61.9L258.2 59.5L253.7 60.3L252.4 63.8L249.1 68.4L246.7 67.3L244.4 68.4L242 67.2L243.2 66.5L243.8 64.4L244.9 62.3L244.3 61.2L245.3 60.7L245.9 61.6L248.9 61.8L250.2 61.3L249.2 60.7L249.4 59.7L247.4 58.1L246.3 55.5L244.3 54.5L244.4 52.4L241.8 50.7L239.8 50.4L235.8 48.5L232.6 49.1L231.5 50H229.4L228.4 51.5L224.8 52.1L223.2 53.1L220.7 51.5H217.5L214.3 50.8L212.3 52.2L211.8 50.5L208.8 48.8L209.5 46.3L210.7 44.6L211.8 45L210.2 42.2L214 37L216.3 36.3L216.6 34.6L213.4 29.2L215.7 28.9L218.1 27.3L221.9 27.1L226.8 27.6L232.5 29.1L236.4 29.2L238.3 30.1L240 29L241.5 30.5L245.8 30.2L247.9 30.8L247.6 27.7L248.9 26.3L253 26L254.8 26.2L255.8 24.8L257.3 25.1L262.2 24.5L266 28L265.1 29.3L265.9 31.2L269.8 31.5Z" fill="#ECECEC" stroke="black" stroke-width="0.2" stroke-linecap="round" stroke-linejoin="round"/>
<path name="Dem. Rep. Korea" d="M465.299 87.6006L466.999 88.2006L463.999 92.3006L468.599 94.7006L471.799 93.1006L478.999 96.5006L473.699 101.101L469.599 100.501L467.499 100.601L466.199 98.9006L466.399 95.9006L459.899 97.4006L459.399 101.501L457.899 105.001L453.499 104.701L452.899 107.501L457.099 109.001L459.499 113.801L458.199 120.301L453.899 118.901H450.899L450.099 115.001L442.399 112.201L436.099 109.101L431.899 106.101L424.799 101.701L420.499 95.1006L418.399 93.9006L412.899 94.2006L410.599 92.9006L408.699 87.9006L400.799 84.5006L397.399 88.2006L393.599 90.4006L395.299 93.6006L389.399 93.7006L383.199 70.3006L395.199 66.6006L396.299 67.1006L405.499 71.6006L410.299 74.0006L416.899 79.7006L422.599 78.8006L431.199 78.3006L438.799 82.9006L440.299 89.3006L442.899 89.4006L445.399 94.6006L452.099 94.8006L454.399 97.8006H456.399L457.299 93.2006L462.699 88.8006L465.299 87.6006Z" fill="#ECECEC" stroke="black" stroke-width="0.2" stroke-linecap="round" stroke-linejoin="round"/>
<path name="Yemen" d="M396.4 251.8L392.4 253.5L391.5 256.4V258.6L386.1 261.3L377.3 264.3L372.6 268.8L370.1 269.2L368.4 268.8L365.2 271.5L361.7 272.7L357 273L355.6 273.4L354.5 275.1L353 275.6L352.2 277.2L349.4 277L347.7 277.9L343.7 277.6L342.1 273.8V270.3L341.1 268.4L339.8 263.7L338 261.1L339.1 260.7L338.4 257.8L339 256.6L338.6 253.8L341 251.7L340.2 249L341.5 245.9L343.9 247.5L345.4 246.9L351.8 246.8L352.9 247.4L358.4 248.1L360.5 247.8L362 249.9L364.6 248.8L368.1 242.1L373.1 239.2L389 236.7L394.2 247.3L396.4 251.8Z" fill="#ECECEC" stroke="black" stroke-width="0.2" stroke-linecap="round" stroke-linejoin="round"/>
<path name="Palestine" d="M274.7 413.701L275 413.901L277.2 415.001L280.8 416.101L284 418.001L286.6 420.901L287.9 426.301L286.9 428.001L285.6 433.201L286.5 438.601L284.7 440.801L282.7 446.801L285.6 448.401L268.4 453.701L268.8 458.301L264.5 459.201L261.2 461.701L260.4 463.901L258.4 464.501L253.3 469.701L250.1 473.901L248.2 474.001L246.4 473.301L240.2 472.601L239.2 472.101V471.601L237 470.101L233.4 469.801L228.8 471.201L225.2 467.201L221.6 462.001L222.4 441.501L234.1 441.601L233.7 439.401L234.6 437.001L233.7 434.001L234.4 430.901L233.8 428.901L235.7 429.001L236 431.001L238.7 430.901L242.2 431.501L244.1 434.401L248.5 435.301L252 433.301L253.2 436.601L257.5 437.501L259.5 440.301L261.7 443.801H266L265.8 436.901L264.2 438.101L260.3 435.601L258.8 434.401L259.7 428.001L260.8 420.401L259.6 417.601L261.3 413.501L262.8 412.701L270.5 411.601L271.4 411.901L271.1 413.301L273 413.801L274.2 415.101L275.2 414.801L274.7 413.701Z" fill="#ECECEC" stroke="black" stroke-width="0.2" stroke-linecap="round" stroke-linejoin="round"/>
<path name="Qatar" d="M271.999 501.601L269.099 500.901L267.199 501.701L264.499 500.601H262.299L258.899 497.701L254.599 496.701L253.099 492.601L253.199 490.301L250.899 489.601L244.799 482.601L243.199 478.901L242.099 477.701L240.199 472.601L246.399 473.301L248.199 474.001L250.099 473.901L253.299 469.701L258.399 464.501L260.399 463.901L261.199 461.701L264.499 459.201L268.799 458.301L268.999 460.701L273.699 460.601L276.299 461.901L277.399 463.501L280.099 464.001L282.899 466.001L282.499 474.201L281.199 478.601L280.799 483.401L281.599 485.301L280.699 489.101L279.899 489.701L278.199 494.301L271.999 501.601Z" fill="#ECECEC" stroke="black" stroke-width="0.2" stroke-linecap="round" stroke-linejoin="round"/>
<path name="Somalia" d="M334.699 369.5L331.399 364.2L331.199 340.8L336.099 333.6L337.599 331.5L341.199 331.4L346.199 326.9L353.499 326.6L369.099 307.3L364.299 307.4L345.599 299.8L343.399 297.5L341.199 294.4L338.999 290.8L340.199 288.6L342.099 285.1L343.999 286.3L345.199 289L347.899 291.7H350.699L355.899 290L361.999 289.3L366.899 287.3L369.699 286.9L371.699 285.7L374.899 285.5L376.699 285.3L379.199 284.4L382.199 283.7L384.699 281.5H386.899L387.099 283.3L386.699 287L386.899 290.4L385.799 292.7L384.399 299.7L381.999 306.8L378.699 315L374.099 324.4L369.399 331.6L362.799 340.4L357.199 345.6L348.799 352L343.499 356.8L337.299 364.6L335.999 368L334.699 369.5Z" fill="#ECECEC" stroke="black" stroke-width="0.2" stroke-linecap="round" stroke-linejoin="round"/>
<path name="Rwanda" d="M210.399 87.7002L209.199 88.0002L206.299 89.0002L206.199 90.3002L205.499 90.2002L204.899 87.9002L203.599 87.2002L202.399 85.5002L203.199 84.1002L204.399 83.7002L204.899 81.6002L205.799 81.2002L206.599 82.1002L207.599 82.5002L208.399 83.5002L209.299 83.8002L210.399 85.0002L211.099 84.9002L210.699 86.5002L210.099 87.2002L210.399 87.7002Z" fill="#ECECEC" stroke="black" stroke-width="0.2" stroke-linecap="round" stroke-linejoin="round"/>
<path name="Western Sahara" d="M272 501.601L274.2 510.601L275.3 515.201L273.9 522.301L274.3 524.601L271.6 523.501L269.9 523.901L269.3 525.801L267.6 528.201L267.5 530.401L270.6 533.901L273.8 533.201L275.2 530.401H279.3L277.6 535.101L276.6 540.401L274.9 543.301L270.9 546.601L269.8 547.501L267.2 550.801L265.4 554.101L261.9 558.701L255.2 565.301L251.1 569.101L246.8 572.101L240.9 574.501L238.2 574.901L237.3 576.701L234.1 575.701L231.4 576.901L225.7 575.701L222.4 576.501L220.2 576.101L214.4 578.701L209.8 579.701L206.3 582.101L203.9 582.301L201.8 580.001L200 579.901L197.8 577.001L197.5 577.901L196.9 576.201L197.2 572.401L195.7 568.101L197.5 566.901L197.6 562.001L194.3 556.001L191.9 550.601V550.501L188.3 542.201L191.1 539.001L193.1 540.801L193.9 543.501L196.4 544.001L199.8 545.201L202.7 544.701L207.7 541.401L208.8 517.701L210.2 518.701L213.2 524.801L212.6 528.701L213.7 531.001L217.7 530.301L220.5 527.401L223.2 525.501L224.7 522.401L227.5 521.001L229.8 521.701L232.3 523.501L236.8 523.801L240.4 522.401L241 520.401L242.2 517.301L245.2 516.801L247 514.401L249 510.101L254.2 505.301L262.3 500.601H264.5L267.2 501.701L269.1 500.901L272 501.601ZM251.7 554.801L252.8 552.801L255.9 551.801L257 549.701L258.9 546.601L257.2 544.601L255 542.601L252.3 544.001L249.2 546.501L246 550.501L249.7 555.501L251.7 554.801Z" fill="#ECECEC" stroke="black" stroke-width="0.2" stroke-linecap="round" stroke-linejoin="round"/>
<path name="Saudi Arabia" d="M129.1 34.0008L126.3 32.5008L123.2 29.8008L118.7 31.1008L115.1 30.6008L117.6 28.9008L121.6 19.9008L128.1 17.3008L132.1 17.5008L133 19.6008L132.1 25.2008L130.9 27.5008H128L129.1 34.0008Z" fill="#ECECEC" stroke="black" stroke-width="0.2" stroke-linecap="round" stroke-linejoin="round"/>
<path name="Sudan" d="M59.4995 120.6L57.2994 122.2L54.4995 121.3L51.7994 122L52.6994 117L52.3994 113.1L49.9995 112.5L48.8994 110.1L49.3994 105.9L51.5994 103.6L52.0994 101L53.2994 97.2V94.5L52.3994 92.2L52.1994 90L54.0994 88.4L56.2994 87.5L57.4995 90.6H60.4995L61.3994 89.8L64.4995 90L65.7994 93.2L63.3994 94.9L63.0994 99.9L62.2994 100.8L61.9995 103.9L59.6994 104.4L61.6994 108.2L60.0994 112.4L61.8994 114.3L61.0994 116L59.0994 118.4L59.4995 120.6Z" fill="#ECECEC" stroke="black" stroke-width="0.2" stroke-linecap="round" stroke-linejoin="round"/>
<path name="xxx" d="M207.2 12.3006L198.4 12.4006L192.5 11.7006L193.2 9.10059L199.5 7.10059L204.6 8.20059L206.8 9.10059L206.6 10.8006L207.2 12.3006Z" fill="#ECECEC" stroke="black" stroke-width="0.2" stroke-linecap="round" stroke-linejoin="round"/>
<path name="Senegal" d="M89.1992 80.3002L91.1992 82.7002L100.699 85.6002L102.599 84.2002L108.399 87.1002L114.299 86.3002L114.699 90.0002L109.799 94.2002L103.199 95.6002L102.699 97.7002L99.4993 101.2L97.4993 106.4L99.4993 110.1L96.4993 112.9L95.2993 117.1L91.2993 118.4L87.5992 123.3L80.7993 123.4L75.7993 123.3L72.3992 125.5L70.2993 127.9L67.6992 127.4L65.7993 125.2L64.3992 121.6L59.4993 120.6L59.0992 118.4L61.0992 116L61.8992 114.3L60.0992 112.4L61.6992 108.2L59.6992 104.4L61.9993 103.9L62.2993 100.8L63.0992 99.9002L63.3992 94.9002L65.7993 93.2002L64.4993 90.0002L61.3992 89.8002L60.4993 90.6002H57.4993L56.2993 87.5002L54.0992 88.4002L52.1992 90.0002L52.6992 85.5002L50.6992 82.8002L58.0992 78.2002L64.2993 79.3002H71.1992L76.5992 80.4002L80.8992 80.0002L89.1992 80.3002Z" fill="#ECECEC" stroke="black" stroke-width="0.2" stroke-linecap="round" stroke-linejoin="round"/>
<path name="Sierra Leone" d="M148.3 88.3004L146.8 93.2004L144.4 91.9004L143.1 87.7004L144 85.3004L147.2 82.9004L148.3 88.3004Z" fill="#ECECEC" stroke="black" stroke-width="0.2" stroke-linecap="round" stroke-linejoin="round"/>
<path name="El Salvador" d="M127 41.9008L128.1 42.4008L129.5 42.3008L131.9 43.9008L139.1 45.1008L136.7 49.3008L136.3 53.8008L135 54.9008L132.7 54.3008L132.9 55.9008L129.3 59.4008V62.3008L131.7 61.3008L133.5 64.0008L133.4 65.8008L134.9 68.2008L133.2 70.1008L134.7 75.0008L137.5 75.8008L137 78.5008L132.5 82.1008L122.3 80.4008L114.9 82.5008L114.3 86.3008L108.4 87.1008L102.6 84.2008L100.7 85.6008L91.1996 82.7008L89.1996 80.3008L91.8996 76.5008L92.8996 63.9008L87.7996 57.3008L84.0996 54.1008L76.4996 51.7008L76.0996 47.1008L82.5996 45.8008L90.8996 47.4008L89.3996 40.3008L94.0996 43.0008L105.5 38.2008L107 33.1008L111.2 31.8008L112 34.0008L114.2 34.1008L116.6 36.6008L120.1 39.5008L122.6 39.0008L127 41.9008Z" fill="#ECECEC" stroke="black" stroke-width="0.2" stroke-linecap="round" stroke-linejoin="round"/>
<path name="Serbia" d="M376.7 190.2L377 190.3L377.2 190.2L377.6 190.9L377.5 191.1L377.6 192V192.7L377.4 193.1L377.3 192.7L376.7 191.9L376.8 191.5L376.6 190.8V190.4L376.7 190.2Z" fill="#ECECEC" stroke="black" stroke-width="0.2" stroke-linecap="round" stroke-linejoin="round"/>
<path name="Suriname" d="M279.099 134.101V134.201L278.899 134.401L278.799 135.001L278.699 135.201H278.399L278.199 135.401L277.699 135.601L277.499 135.701L276.899 136.001L276.499 135.901L275.999 136.001L275.699 136.401L275.499 136.101L275.199 136.201H274.999L274.699 135.901L274.299 136.201H273.799L273.299 136.001L272.799 135.901L272.399 135.601L272.099 135.001L271.799 134.701L271.599 134.001L271.399 133.701L271.499 133.401L271.999 133.701L272.399 133.601L272.599 133.301L272.699 133.001L272.999 132.901L273.199 133.001L273.399 132.801H273.599L273.699 133.201L274.199 133.401L274.299 133.601H274.899L275.499 133.101L275.899 133.201L276.199 133.001L276.499 133.101L276.899 133.301L277.099 133.001H277.399L277.699 133.401V134.001L277.999 133.801L278.299 134.001L278.399 133.901L279.099 134.101Z" fill="#ECECEC" stroke="black" stroke-width="0.2" stroke-linecap="round" stroke-linejoin="round"/>
<path name="Slovakia" d="M515.5 331.701V331.901L515.3 331.801L515.5 331.601V331.701Z" fill="#ECECEC" stroke="black" stroke-width="0.2" stroke-linecap="round" stroke-linejoin="round"/>
</g>
<defs>
<clipPath id="clip0_9229_6336">
<rect width="531.2" height="582.301" fill="white"/>
</clipPath>
</defs>
</svg>
